#!OML:ASF H:\Terrain\Walking\May29\JustinRory\Justin.ASF
:FULLY-SPECIFIED
:DEGREES
373
root 5.62403 15.9002 34.5808 -280.509 -71.5549 292.482
lowerback 17.5072 -1.87404 -2.1596
upperback 7.53015 -3.12926 5.05258
thorax -1.30959 -1.91682 7.18608
lowerneck -14.2579 0.979163 -7.26949
upperneck 29.412 1.87065 2.40012
head 11.9094 0.0599793 2.35899
rclavicle 7.95139e-016 4.45278e-014
rhumerus -58.5208 -37.7942 2.42411
rradius 35.664
rwrist -72.1182
rhand -1.95452 -2.78705
rfingers 7.12502
rthumb 23.717 -31.3437
lclavicle 7.95139e-016 4.45278e-014
lhumerus -32.3805 18.092 58.7019
lradius 35.5012
lwrist -6.02432
lhand -2.99459 33.6158
lfingers 7.12502
lthumb 22.7192 62.2982
rfemur -16.1211 0.0824272 5.28079
rtibia 38.3262
rfoot 8.61551 -20.1695
rtoes -1.5955
lfemur -43.9541 15.9442 -18.4495
ltibia 78.5917
lfoot -31.1415 -10.8858
ltoes 13.727
374
root 5.64463 15.9075 34.7273 -281.129 -71.1141 293.094
lowerback 17.5422 -2.02848 -2.25007
upperback 7.58718 -3.35239 5.30544
thorax -1.21013 -2.04625 7.55375
lowerneck -14.2346 1.03121 -7.14836
upperneck 29.3133 1.91513 2.38545
head 11.8637 0.09455 2.33652
rclavicle 1.27222e-014 -4.92986e-014
rhumerus -58.9635 -39.23 2.91139
rradius 35.4185
rwrist -71.6664
rhand -1.72385 -2.26502
rfingers 7.12502
rthumb 23.9382 -30.7928
lclavicle 1.27222e-014 -4.92986e-014
lhumerus -31.8906 18.1918 58.6132
lradius 34.7627
lwrist -6.61592
lhand -3.08968 33.5856
lfingers 7.12502
lthumb 22.6279 62.2792
rfemur -17.0235 -1.15335 6.02746
rtibia 39.837
rfoot 6.49886 -18.1033
rtoes -2.2283
lfemur -43.648 15.1091 -18.5658
ltibia 77.9675
lfoot -30.447 -11.5104
ltoes 18.2067
375
root 5.65814 15.9237 34.8755 -281.789 -70.6352 293.872
lowerback 17.4174 -2.23111 -2.16357
upperback 7.60791 -3.60529 5.41277
thorax -1.08249 -2.17889 7.65416
lowerneck -14.0296 1.19415 -6.55045
upperneck 29.0739 2.03333 2.17914
head 11.7286 0.194841 2.16577
rclavicle -1.82882e-014 5.88403e-014
rhumerus -59.4981 -40.1968 2.83935
rradius 35.4575
rwrist -71.8869
rhand -1.84792 -1.75465
rfingers 7.12502
rthumb 23.8192 -30.298
lclavicle -1.82882e-014 5.88403e-014
lhumerus -31.3521 18.0966 58.2956
lradius 34.137
lwrist -7.46679
lhand -2.77305 33.3544
lfingers 7.12502
lthumb 22.9318 62.0107
rfemur -18.1343 -2.30017 6.80274
rtibia 41.5276
rfoot 3.88069 -15.9712
rtoes -1.4105
lfemur -43.3712 14.853 -18.7914
ltibia 77.1751
lfoot -29.828 -12.2567
ltoes 22.1229
376
root 5.66536 15.9595 35.0342 -282.001 -70.0202 294.374
lowerback 16.9023 -2.44757 -1.54434
upperback 7.61234 -3.79292 5.29024
thorax -0.835547 -2.25659 7.15422
lowerneck -13.6656 1.23254 -6.09635
upperneck 28.9114 1.82373 2.55234
head 11.5959 0.200387 2.1904
rclavicle 7.63333e-014 6.20208e-014
rhumerus -60.5578 -40.9282 2.72747
rradius 35.4434
rwrist -72.0566
rhand -1.6236 -0.887272
rfingers 7.12502
rthumb 24.0344 -29.4024
lclavicle 7.63333e-014 6.20208e-014
lhumerus -30.6235 17.7166 57.7675
lradius 33.76
lwrist -8.52155
lhand -2.21454 33.3179
lfingers 7.12502
lthumb 23.4676 61.9066
rfemur -19.5803 -3.57594 7.86307
rtibia 43.4131
rfoot 2.97487 -13.3026
rtoes -4.41805
lfemur -43.1281 14.3973 -18.908
ltibia 76.2006
lfoot -29.8089 -11.9228
ltoes 23.3523
377
root 5.67625 15.9983 35.1971 -282.295 -69.3806 294.856
lowerback 16.7407 -2.44305 -1.21224
upperback 7.47568 -3.72621 5.58099
thorax -0.905552 -2.21663 7.26264
lowerneck -13.3108 1.01866 -6.06377
upperneck 29.0086 1.43026 2.66924
head 11.5803 0.0340511 2.17242
rclavicle 4.13472e-014 9.54166e-015
rhumerus -61.6165 -41.4641 3.46269
rradius 35.2222
rwrist -72.1794
rhand -1.29189 -0.136407
rfingers 7.12502
rthumb 24.3524 -28.6092
lclavicle 4.13472e-014 9.54166e-015
lhumerus -30.0242 17.2757 58.0612
lradius 33.6815
lwrist -9.57966
lhand -2.16901 33.6906
lfingers 7.12502
lthumb 23.5113 62.2737
rfemur -20.9845 -4.76379 9.04523
rtibia 45.563
rfoot 3.40609 -11.26
rtoes -6.78008
lfemur -42.7511 14.4073 -19.0318
ltibia 75.103
lfoot -30.1292 -11.4631
ltoes 22.6389
378
root 5.69231 16.0331 35.3612 -283.58 -69.0754 296.231
lowerback 16.6515 -2.48878 -1.12
upperback 7.4986 -3.77433 5.69095
thorax -0.824924 -2.24444 7.32944
lowerneck -13.6184 0.816358 -6.11384
upperneck 29.4726 1.01499 3.14062
head 11.8402 -0.112754 2.31306
rclavicle 2.14687e-014 -3.18055e-015
rhumerus -62.5823 -41.983 3.70064
rradius 35.2214
rwrist -72.9351
rhand -1.46977 0.244162
rfingers 7.12502
rthumb 24.1819 -28.2514
lclavicle 2.14687e-014 -3.18055e-015
lhumerus -29.1642 16.7648 58.4161
lradius 33.8013
lwrist -10.3735
lhand -2.71315 34.2615
lfingers 7.12502
lthumb 22.9892 62.9106
rfemur -22.1604 -6.29564 9.83008
rtibia 47.9498
rfoot 4.34074 -10.4204
rtoes -5.82989
lfemur -42.1066 14.2325 -19.6679
ltibia 73.8166
lfoot -30.6156 -10.751
ltoes 21.8738
379
root 5.70433 16.0728 35.5167 -285.426 -69.1752 298.393
lowerback 16.5092 -2.63718 -1.6164
upperback 7.37649 -4.02133 5.67037
thorax -0.81257 -2.36917 7.62702
lowerneck -13.6389 0.798798 -5.99306
upperneck 29.4824 0.922833 3.26231
head 11.852 -0.125162 2.3258
rclavicle 0 -7.95139e-015
rhumerus -63.0631 -42.376 3.39776
rradius 35.2391
rwrist -73.8848
rhand -1.97616 0.755799
rfingers 7.12502
rthumb 23.6963 -27.8035
lclavicle 0 -7.95139e-015
lhumerus -28.7609 16.4948 58.5739
lradius 34.3231
lwrist -10.8355
lhand -3.53294 34.5606
lfingers 7.12502
lthumb 22.2024 63.3055
rfemur -23.4758 -8.07211 10.2189
rtibia 50.644
rfoot 5.37607 -10.6429
rtoes -4.22563
lfemur -41.5634 13.7301 -20.9025
ltibia 72.3586
lfoot -30.9426 -10.016
ltoes 23.6195
380
root 5.70911 16.1239 35.6631 -286.676 -68.9732 300.018
lowerback 16.2813 -2.79377 -2.05263
upperback 7.22511 -4.27247 5.88139
thorax -0.764223 -2.50407 8.13795
lowerneck -13.7839 0.792921 -6.22355
upperneck 29.759 0.913657 3.4407
head 11.9887 -0.143063 2.43808
rclavicle 3.97569e-015 -3.18055e-015
rhumerus -63.1228 -42.8738 3.11303
rradius 35.054
rwrist -74.4573
rhand -2.20899 1.29545
rfingers 7.12502
rthumb 23.4729 -27.2926
lclavicle 3.97569e-015 -3.18055e-015
lhumerus -28.7841 16.6015 58.826
lradius 35.2445
lwrist -11.021
lhand -4.37396 34.4251
lfingers 7.12502
lthumb 21.3948 63.2639
rfemur -24.9026 -9.38854 11.0868
rtibia 53.6272
rfoot 5.84315 -11.8433
rtoes -0.0530494
lfemur -41.1192 13.4766 -21.7529
ltibia 70.7969
lfoot -31.0097 -9.60281
ltoes 25.2096
381
root 5.72195 16.1652 35.8026 -286.95 -67.9744 300.635
lowerback 16.1241 -2.86756 -1.48804
upperback 7.01998 -4.27204 6.25242
thorax -0.911378 -2.48987 8.21509
lowerneck -13.9299 0.650881 -6.44533
upperneck 30.0873 0.658354 3.77527
head 12.161 -0.250162 2.57627
rclavicle 1.43125e-014 -4.92986e-014
rhumerus -63.631 -42.7113 2.67054
rradius 35.2601
rwrist -75.7424
rhand -2.52713 1.55372
rfingers 7.12502
rthumb 23.1677 -27.0731
lclavicle 1.43125e-014 -4.92986e-014
lhumerus -28.7428 15.8515 59.2683
lradius 36.455
lwrist -10.6058
lhand -5.17399 34.5878
lfingers 7.12502
lthumb 20.6262 63.5119
rfemur -26.4466 -10.4352 13.0576
rtibia 56.8505
rfoot 5.6318 -13.5693
rtoes 6.39333
lfemur -40.9043 13.8692 -21.6738
ltibia 69.295
lfoot -30.5764 -9.9862
ltoes 24.7175
382
root 5.72816 16.2096 35.9462 -289.168 -68.412 302.706
lowerback 16.3535 -2.66351 -2.16837
upperback 6.93661 -4.07782 5.89338
thorax -1.13166 -2.37836 8.20805
lowerneck -13.6875 0.394299 -5.93734
upperneck 30.0258 0.0545284 4.0459
head 12.1219 -0.424949 2.50349
rclavicle 2.62396e-014 -6.67916e-014
rhumerus -65.731 -42.7704 3.22348
rradius 35.5725
rwrist -76.6893
rhand -2.71765 1.79124
rfingers 7.12502
rthumb 22.9849 -26.8584
lclavicle 2.62396e-014 -6.67916e-014
lhumerus -28.3745 14.0392 59.5679
lradius 37.8761
lwrist -9.70101
lhand -5.91969 34.8311
lfingers 7.12502
lthumb 19.9096 63.8312
rfemur -27.2437 -11.7643 13.2128
rtibia 60.2325
rfoot 4.98838 -14.8027
rtoes 12.2012
lfemur -39.8169 14.3435 -23.2043
ltibia 67.7504
lfoot -30.1613 -9.78663
ltoes 21.2927
383
root 5.73827 16.2504 36.0876 -290.589 -68.2796 304.167
lowerback 16.0873 -2.44674 -2.26998
upperback 7.025 -3.8081 5.70535
thorax -0.948559 -2.24414 7.99372
lowerneck -13.5934 0.178346 -5.22546
upperneck 29.8474 -0.477269 4.19261
head 12.0621 -0.553862 2.35792
rclavicle 7.15625e-015 -2.8625e-014
rhumerus -68.9456 -44.539 6.0483
rradius 35.0719
rwrist -75.5607
rhand -2.00844 2.05005
rfingers 7.12502
rthumb 23.6653 -26.5133
lclavicle 7.15625e-015 -2.8625e-014
lhumerus -27.6788 12.6485 59.9065
lradius 39.2701
lwrist -9.03822
lhand -7.01343 34.6127
lfingers 7.12502
lthumb 18.8579 63.7186
rfemur -28.2663 -13.0202 14.2225
rtibia 63.6269
rfoot 4.67169 -16.0421
rtoes 16.4292
lfemur -39.0754 14.5802 -24.0437
ltibia 66.2435
lfoot -29.5093 -10.0169
ltoes 22.742
